<svg width="393" height="225" viewBox="0 0 393 225" fill="none" xmlns="http://www.w3.org/2000/svg">
<mask id="mask0_6_339" style="mask-type:luminance" maskUnits="userSpaceOnUse" x="0" y="0" width="397" height="238">
<path d="M396.042 0H0.40509V238H396.042V0Z" fill="white"/>
</mask>
<g mask="url(#mask0_6_339)">
<path d="M92.7461 182.638C86.806 182.21 80.8674 181.392 75.0002 180.183C66.6205 178.457 58.1064 175.947 49.6952 172.721C41.7714 169.683 33.7162 165.926 25.7536 161.553C11.4331 153.689 -3.22211 143.478 -17.8053 131.205L-18.7089 130.444C-33.4575 118.024 -50.1732 103.947 -68.8884 107.301L-69 106.676C-49.9928 103.271 -33.1568 117.449 -18.3022 129.958L-17.3986 130.719C14.1329 157.255 44.3984 173.232 75.1268 179.562C81.1017 180.793 87.0821 181.617 93.0096 182.044C123.991 184.275 153.623 175.674 174.756 157.804C185.916 148.367 194.825 136.384 203.442 124.796C210.081 115.868 216.946 106.635 224.822 98.5741C249.585 73.2286 285.465 59.2152 320.803 61.0875C356.142 62.9605 390.348 80.6884 412.307 108.51L411.811 108.903C390.425 81.8085 357.361 64.3346 322.998 61.8602C322.255 61.807 321.514 61.7602 320.769 61.7205C285.611 59.857 249.911 73.7998 225.274 99.0175C217.427 107.048 210.576 116.263 203.949 125.175C195.312 136.791 186.379 148.804 175.164 158.287C168.576 163.859 161.107 168.595 152.968 172.363C145.182 175.968 136.754 178.701 127.92 180.488C116.588 182.78 104.667 183.496 92.7461 182.637V182.638Z" fill="#1D85B4"/>
<path d="M93.8673 185.964C88.6109 185.585 83.3774 184.88 78.2167 183.847C73.6748 182.939 69.0806 181.777 64.5625 180.395C50.8679 176.206 37.47 170.206 24.7408 162.558C12.2473 155.052 0.610847 146.093 -9.84506 135.928C-12.3376 133.505 -14.6892 130.843 -16.9642 128.269C-18.9732 125.995 -21.0503 123.643 -23.2263 121.453C-28.9053 115.751 -33.8974 111.892 -38.9371 109.309C-47.0579 105.161 -56.2597 103.858 -65.5461 105.544L-65.6497 104.968C-60.9701 104.119 -56.3079 104.008 -51.7929 104.639C-47.228 105.277 -42.8135 106.673 -38.672 108.788C-33.5762 111.4 -28.5373 115.293 -22.8141 121.04C-20.6254 123.243 -18.5428 125.601 -16.5282 127.88C-14.2612 130.446 -11.9166 133.1 -9.43993 135.507C11.8082 156.165 37.4566 171.493 64.7318 179.834C69.231 181.211 73.8062 182.367 78.3299 183.272C83.5855 184.324 88.8673 185.036 94.1221 185.414C123.709 187.544 152.638 179.147 173.819 161.817C184.791 152.839 193.987 141.894 202.881 131.31C210.34 122.434 218.052 113.255 226.751 105.321C246.681 87.1406 272.755 75.2778 300.17 71.9181C308.362 70.9129 316.559 70.6948 324.536 71.2691C324.586 71.2731 324.636 71.2763 324.685 71.2802C336.539 72.1513 348.109 74.763 359.073 79.043C369.477 83.1025 379.95 88.9359 390.203 96.3821C399.493 103.13 408.693 111.204 416.81 119.732L416.388 120.135C408.295 111.632 399.123 103.582 389.861 96.8549C379.649 89.438 369.22 83.6277 358.862 79.5864C347.951 75.3278 336.438 72.7289 324.643 71.8625C324.593 71.8586 324.543 71.8554 324.493 71.8514C316.554 71.2794 308.395 71.4968 300.241 72.498C272.945 75.8435 246.985 87.6538 227.143 105.754C218.473 113.662 210.773 122.825 203.327 131.687C194.416 142.292 185.202 153.257 174.186 162.27C167.768 167.521 160.566 172.018 152.78 175.635C145.268 179.125 137.198 181.805 128.793 183.6C117.468 186.02 105.616 186.808 93.8665 185.962L93.8673 185.964Z" fill="#1D85B4"/>
<path d="M95.0795 189.311C90.4838 188.98 85.9213 188.38 81.434 187.511C77.0693 186.667 72.6691 185.569 68.3558 184.252C54.9445 180.153 42.1227 174.364 30.2464 167.047C18.0822 159.554 7.27493 150.675 -1.87696 140.657C-4.83474 137.42 -7.32487 133.749 -9.73193 130.2C-11.4189 127.712 -13.1637 125.14 -15.0541 122.74C-20.7591 115.522 -26.0504 110.724 -31.7072 107.64C-40.3305 102.959 -50.5902 101.663 -62.2006 103.789L-62.2963 103.263C-56.7511 102.248 -51.4115 102.016 -46.4265 102.572C-40.9976 103.177 -35.9603 104.725 -31.454 107.171C-23.9361 111.269 -18.2555 117.83 -14.637 122.408C-12.7348 124.824 -10.9845 127.404 -9.29199 129.899C-6.89522 133.433 -4.41615 137.087 -1.48448 140.296C16.5384 160.024 41.3971 175.454 68.5109 183.741C72.8059 185.054 77.188 186.145 81.5345 186.986C114.031 193.282 148.18 185.374 172.882 165.834C183.496 157.438 192.786 147.62 201.771 138.125C210.223 129.192 218.964 119.955 228.679 112.074C239.133 103.594 250.954 96.6503 263.814 91.4373C276.646 86.2362 290.109 82.9208 303.828 81.5833C312.222 80.763 320.545 80.7257 328.566 81.4738C340.692 82.6091 352.287 85.5245 363.031 90.1378C372.816 94.3377 382.601 100.193 393.825 108.567C403.645 115.894 413.231 123.998 421.312 130.96L420.965 131.364C412.891 124.409 403.315 116.312 393.507 108.995C382.318 100.647 372.568 94.8105 362.822 90.6281C352.13 86.0363 340.588 83.135 328.518 82.0045C320.53 81.2596 312.241 81.2961 303.88 82.1132C276.45 84.7868 249.862 95.5745 229.015 112.488C219.326 120.346 210.599 129.57 202.157 138.491C193.16 148 183.855 157.832 173.211 166.252C166.968 171.19 160.035 175.453 152.605 178.919C145.367 182.296 137.653 184.922 129.679 186.722C118.377 189.274 106.624 190.14 95.0795 189.308V189.311Z" fill="#1D85B4"/>
<path d="M96.4833 192.695C92.5111 192.41 88.5634 191.904 84.6506 191.174C80.4639 190.394 76.2575 189.362 72.1492 188.107C45.5703 179.989 22.1114 164.817 6.09438 145.388C2.83196 141.43 0.373463 136.885 -2.00352 132.49C-3.52752 129.672 -5.10374 126.758 -6.87461 124.031C-12.5536 115.323 -18.1471 109.584 -24.4773 105.97C-33.5358 100.821 -45.1027 99.4959 -58.8574 102.032L-58.9445 101.557C-52.5043 100.369 -46.4866 100.015 -41.0585 100.503C-34.8003 101.065 -29.1411 102.764 -24.2399 105.55C-17.8401 109.203 -12.1944 114.992 -6.47107 123.767C-4.68911 126.511 -3.10815 129.433 -1.5802 132.26C0.785717 136.635 3.23313 141.159 6.46548 145.08C22.4231 164.437 45.7998 179.554 72.2893 187.646C76.381 188.895 80.57 189.922 84.7384 190.7C114.888 196.329 147.487 188.535 171.943 169.852C181.943 162.213 191.043 153.641 199.843 145.352C209.549 136.209 219.586 126.756 230.606 118.829C241.564 110.947 253.761 104.566 266.859 99.8648C279.973 95.158 293.641 92.2592 307.484 91.2492C316.034 90.6225 324.432 90.7637 332.446 91.6689C344.83 93.0739 356.45 96.2925 366.985 101.235C378.246 106.514 388.279 113.735 397.444 120.753C399.989 122.702 402.582 124.713 405.092 126.658C412.064 132.064 419.274 137.654 425.814 142.193L425.539 142.591C418.99 138.044 411.774 132.45 404.796 127.04C402.288 125.096 399.694 123.085 397.151 121.137C388.008 114.136 378.001 106.932 366.78 101.673C356.293 96.7526 344.723 93.5483 332.392 92.1497C324.408 91.2477 316.039 91.1072 307.519 91.7316C279.95 93.7427 252.734 103.506 230.886 119.223C219.892 127.13 209.867 136.573 200.172 145.705C191.363 154.003 182.254 162.583 172.234 170.237C150.846 186.577 123.249 194.623 96.4817 192.698L96.4833 192.695Z" fill="#1D85B4"/>
<path d="M97.8933 196.087C94.5043 195.842 91.1556 195.426 87.8671 194.837C83.8616 194.122 79.8491 193.155 75.9417 191.962C69.8766 190.111 63.8898 187.802 58.146 185.097C52.3412 182.364 46.7437 179.209 41.5102 175.719C30.5811 168.429 21.3477 159.817 14.0672 150.12C10.5666 145.458 8.18647 140.088 5.88386 134.896C4.47223 131.712 3.01232 128.419 1.31029 125.328C-4.322 115.14 -10.2186 108.458 -17.2467 104.3C-26.9058 98.6066 -39.4237 97.2896 -55.5143 100.274L-55.5927 99.8489C-48.1468 98.4677 -41.6496 98.0036 -35.7332 98.4297C-35.7182 98.4304 -35.704 98.432 -35.6881 98.4328C-28.6173 98.9477 -22.3393 100.796 -17.0267 103.927C-13.1241 106.236 -9.59348 109.305 -6.23214 113.309C-3.48484 116.584 -0.89341 120.445 1.68931 125.118C3.40084 128.226 4.8639 131.528 6.2795 134.72C8.57182 139.89 10.9425 145.236 14.413 149.859C28.777 168.992 50.6732 183.797 76.0683 191.547C79.959 192.735 83.955 193.698 87.9438 194.41C115.744 199.385 146.795 191.704 171.005 173.866C179.998 167.241 188.468 160.095 196.659 153.185C208.543 143.16 219.767 133.691 232.531 125.583C243.993 118.302 256.566 112.483 269.903 108.289C283.296 104.077 297.17 101.595 311.14 100.911C319.851 100.481 328.324 100.8 336.327 101.859C348.954 103.538 360.6 107.06 370.939 112.326C381.981 117.945 391.683 125.565 401.065 132.933C410.209 140.115 420.765 148.214 430.32 153.426L430.114 153.806C420.529 148.578 409.956 140.467 400.799 133.274C391.432 125.917 381.747 118.311 370.744 112.711C360.448 107.467 348.849 103.96 336.27 102.288C328.293 101.232 319.845 100.914 311.161 101.343C283.043 102.719 255.933 111.228 232.762 125.949C220.022 134.041 208.809 143.501 196.937 153.516C188.74 160.431 180.264 167.581 171.26 174.215C165.37 178.555 158.987 182.359 152.286 185.522C145.591 188.682 138.589 191.197 131.474 192.999C124.264 194.824 116.941 195.914 109.707 196.24C105.737 196.418 101.789 196.366 97.8925 196.086L97.8933 196.087Z" fill="#1D85B4"/>
<path d="M99.4331 199.505C96.6091 199.302 93.8222 198.966 91.0836 198.5C87.2617 197.851 83.4431 196.948 79.7351 195.818C73.9865 194.064 68.3107 191.83 62.8652 189.177C57.3998 186.513 52.1418 183.415 47.2359 179.969C42.2572 176.471 37.614 172.594 33.4329 168.445C29.1489 164.194 25.3176 159.622 22.0441 154.855C18.3544 149.484 16.0652 143.321 13.8504 137.362C12.5251 133.795 11.1554 130.107 9.50002 126.632C4.00224 115.131 -2.38097 107.28 -10.0144 102.632C-23.5405 94.4241 -40.5521 96.3535 -52.1719 98.5185L-52.2416 98.1425C-43.82 96.5733 -36.6487 95.9918 -30.3177 96.3646C-22.3361 96.8343 -15.6285 98.7779 -9.81658 102.305C-5.60225 104.872 -1.70364 108.462 1.77005 112.977C4.65821 116.731 7.29948 121.144 9.84343 126.467C11.5059 129.958 12.8788 133.654 14.2065 137.228C16.4126 143.167 18.6938 149.306 22.3567 154.639C35.2117 173.355 56.1654 188.231 79.8451 195.452C83.538 196.578 87.3401 197.477 91.1469 198.123C93.9116 198.594 96.7135 198.931 99.5368 199.134C123.083 200.829 148.34 193.298 170.066 177.884C177.415 172.67 184.552 167.237 191.454 161.983C205.742 151.107 219.236 140.834 234.454 132.343C246.418 125.666 259.368 120.409 272.945 116.718C286.614 113.002 300.694 110.937 314.794 110.577C323.67 110.347 332.22 110.844 340.205 112.054C353.067 114.01 364.737 117.835 374.892 123.42C384.302 128.592 392.806 135.49 401.031 142.161C402.226 143.131 403.462 144.134 404.685 145.118C412.469 151.385 424.064 160.23 434.829 164.668L434.684 165.022C430.068 163.119 425.089 160.365 419.465 156.603C415.004 153.62 410.092 149.961 404.447 145.416C403.224 144.431 401.987 143.428 400.791 142.458C392.202 135.491 384.088 128.91 374.708 123.755C364.592 118.191 352.966 114.38 340.148 112.431C332.185 111.225 323.658 110.729 314.805 110.959C286.528 111.679 258.807 119.189 234.64 132.677C219.446 141.155 205.962 151.42 191.686 162.287C184.781 167.544 177.641 172.979 170.286 178.197C158.75 186.382 145.644 192.59 132.386 196.152C125.508 198 118.575 199.147 111.779 199.563C107.617 199.817 103.488 199.797 99.4331 199.505Z" fill="#1D85B4"/>
<path d="M101.141 202.956C98.8357 202.79 96.5544 202.526 94.2993 202.164C90.6618 201.58 87.037 200.743 83.5277 199.674C78.1019 198.021 72.7426 195.858 67.6001 193.245C62.4916 190.65 57.5818 187.603 53.0058 184.19C48.4046 180.757 44.1285 176.944 40.2956 172.857C36.3962 168.698 32.9391 164.236 30.0209 159.594C26.1919 153.504 23.993 146.572 21.866 139.867C20.6103 135.908 19.3118 131.814 17.692 127.94C12.2576 114.989 5.56101 106.165 -2.78061 100.965C-16.8273 92.2338 -34.7679 94.133 -48.8288 96.7637L-48.8898 96.4376C-39.362 94.655 -31.7539 93.9751 -24.9458 94.298C-16.1571 94.7145 -8.84968 96.8034 -2.60653 100.684C5.79523 105.921 12.5345 114.795 17.9967 127.812C19.622 131.701 20.9228 135.801 22.1809 139.767C24.3016 146.452 26.4934 153.364 30.3002 159.418C42.0111 178.045 61.4472 192.602 83.6234 199.358C87.1185 200.423 90.7283 201.258 94.3515 201.838C117.769 205.604 145.023 198.339 169.125 181.905C173.742 178.757 178.343 175.554 182.792 172.456C200.636 160.034 217.489 148.3 236.374 139.106C261.566 126.838 289.946 120.315 318.446 120.244C327.494 120.218 336.118 120.892 344.082 122.249C357.166 124.486 368.861 128.613 378.841 134.516C387.161 139.432 394.667 145.795 401.926 151.947C404.005 153.71 406.156 155.532 408.303 157.304C420.361 167.247 430.514 173.336 439.342 175.916L439.249 176.234C430.377 173.641 420.186 167.532 408.093 157.559C405.944 155.787 403.792 153.963 401.712 152.2C394.464 146.057 386.969 139.704 378.672 134.802C368.727 128.92 357.07 124.806 344.026 122.576C336.081 121.222 327.475 120.549 318.447 120.576C289.996 120.647 261.666 127.158 236.518 139.405C217.656 148.587 200.813 160.314 182.981 172.729C178.531 175.827 173.928 179.031 169.311 182.179C163.76 185.964 157.938 189.326 152.005 192.172C145.843 195.129 139.55 197.534 133.303 199.318C122.227 202.482 111.441 203.699 101.141 202.958L101.141 202.956Z" fill="#1D85B4"/>
<path d="M102.868 206.418C101.062 206.288 99.2796 206.091 97.5159 205.826C94.0651 205.311 90.6358 204.538 87.3211 203.529C82.2182 201.976 77.1817 199.882 72.3502 197.305C67.6089 194.776 63.0551 191.777 58.8146 188.391C50.3543 181.635 43.1569 173.316 38.0001 164.332C34.0857 157.512 31.9691 149.831 29.9228 142.404C28.7217 138.044 27.4794 133.535 25.8865 129.249C20.5193 114.85 13.5086 105.052 4.45406 99.296C-10.194 90.0053 -29.0105 91.9132 -45.4857 95.0057L-45.5371 94.7296C-38.3484 93.3801 -28.9006 91.8767 -19.5722 92.2282C-9.98197 92.5892 -2.07317 94.824 4.60361 99.0588C13.7112 104.849 20.7591 114.692 26.1484 129.151C27.7452 133.448 28.9891 137.963 30.1926 142.329C32.2341 149.739 34.346 157.402 38.2431 164.191C48.7425 182.483 67.1199 197.087 87.4026 203.26C90.7038 204.264 94.1205 205.035 97.557 205.548C118.85 208.745 143.933 201.775 168.185 185.921C179.393 178.594 190.982 171.019 202.69 164.103C215.733 156.397 227.046 150.602 238.292 145.866C264.438 134.852 293.417 129.333 322.098 129.907C331.322 130.088 340.022 130.94 347.958 132.44C361.256 134.96 372.974 139.39 382.79 145.606C390.333 150.379 397.112 156.419 403.667 162.26C406.348 164.648 409.12 167.118 411.923 169.484C423.787 179.5 434.533 185.449 443.861 187.162L443.81 187.439C434.434 185.717 423.644 179.748 411.741 169.699C408.936 167.33 406.163 164.859 403.48 162.47C396.933 156.637 390.163 150.605 382.64 145.844C372.854 139.647 361.168 135.23 347.906 132.716C339.985 131.219 331.3 130.368 322.092 130.188C293.451 129.615 264.51 135.126 238.4 146.125C213.598 156.571 190.589 171.611 168.338 186.156C157.036 193.545 145.559 199.04 134.228 202.49C123.301 205.816 112.777 207.131 102.868 206.418Z" fill="#1D85B4"/>
<path d="M104.716 209.906C103.372 209.81 102.044 209.671 100.731 209.489C97.4684 209.041 94.2328 208.333 91.1136 207.384C86.3312 205.931 81.6207 203.905 77.112 201.363C72.7442 198.901 68.5528 195.948 64.6558 192.586C57.02 185.999 50.5624 177.868 45.9801 169.071C42.0427 161.512 39.9965 153.109 38.0167 144.981C36.8543 140.208 35.6524 135.274 34.0809 130.561C28.7826 114.715 21.4577 103.943 11.6886 97.6284C-3.61382 87.7546 -23.2271 89.6879 -42.1426 93.2484L-42.1853 93.0215C-23.2232 89.4523 -3.55685 87.5166 11.8129 97.434C17.1263 100.868 21.8217 105.756 25.7702 111.963C29.0832 117.172 31.8733 123.232 34.2993 130.488C35.874 135.209 37.0775 140.149 38.2407 144.927C40.2165 153.041 42.2596 161.431 46.1843 168.965C55.6867 187.208 72.5076 201.488 91.1809 207.163C94.2882 208.108 97.5119 208.813 100.762 209.26C120.087 211.928 142.455 205.428 167.244 189.939C180.886 181.415 192.26 174.817 203.038 169.175C216.049 162.364 228.206 156.952 240.206 152.629C253.66 147.781 267.74 144.207 282.056 142.006C296.53 139.78 311.23 138.961 325.747 139.571C335.152 139.963 343.929 140.993 351.833 142.632C358.318 143.979 364.444 145.781 370.042 147.987C376.101 150.374 381.717 153.305 386.737 156.697C393.696 161.397 399.921 167.243 405.941 172.897C409.043 175.811 412.251 178.824 415.54 181.665C427.264 191.792 438.621 197.584 448.385 198.413L448.365 198.644C443.023 198.19 437.247 196.298 431.198 193.019C426.089 190.25 420.771 186.489 415.389 181.841C412.096 178.997 408.886 175.981 405.782 173.066C399.769 167.418 393.552 161.578 386.608 156.888C376.974 150.378 365.258 145.658 351.786 142.858C343.894 141.221 335.131 140.193 325.738 139.802C296.883 138.59 267.334 143.1 240.283 152.847C212.732 162.772 187.962 177.266 167.365 190.135C156.151 197.142 145.314 202.37 135.157 205.673C124.409 209.169 114.189 210.588 104.715 209.906L104.716 209.906Z" fill="#1D85B4"/>
<path d="M106.73 213.425C105.793 213.358 104.864 213.266 103.947 213.152C100.875 212.771 97.834 212.129 94.907 211.24C90.4403 209.884 86.0598 207.927 81.8858 205.422C77.8931 203.026 74.0712 200.119 70.5263 196.782C63.7269 190.382 57.9988 182.44 53.9617 173.814C50.0766 165.513 48.0826 156.414 46.1534 147.615C45.0132 142.414 43.8342 137.036 42.2778 131.876C37.0506 114.584 29.4117 102.836 18.9249 95.9609C2.12217 84.9573 -19.6814 87.8847 -38.7986 91.492L-38.8318 91.3151C-29.7069 89.5936 -19.0049 87.8633 -8.82275 88.0902C2.36113 88.3393 11.4703 90.8645 19.023 95.8101C24.7028 99.5332 29.6641 104.853 33.7684 111.622C37.1749 117.239 40.0954 124.036 42.4495 131.823C44.0083 136.99 45.1881 142.372 46.3291 147.576C48.2559 156.365 50.2483 165.454 54.1247 173.737C62.6428 191.935 77.9081 205.891 94.9601 211.067C97.8767 211.953 100.907 212.594 103.97 212.973C126.238 215.744 148.979 204.267 166.303 193.959C192.966 178.095 217.766 166.789 242.12 159.395C256.06 155.162 270.519 152.148 285.092 150.437C299.823 148.707 314.73 148.303 329.398 149.236C339.125 149.852 347.731 151.026 355.709 152.825C362.273 154.307 368.433 156.241 374.018 158.572C380.109 161.116 385.716 164.216 390.684 167.787C397.19 172.461 402.976 178.197 408.57 183.745C411.974 187.12 415.494 190.61 419.158 193.847C427.37 201.101 439.892 209.734 452.914 209.665V209.845C452.135 209.849 451.356 209.822 450.58 209.767C438.353 208.887 426.784 200.824 419.039 193.982C415.372 190.742 411.85 187.25 408.443 183.872C402.854 178.33 397.074 172.599 390.579 167.933C381.088 161.111 369.343 156.087 355.668 152.999C347.7 151.203 339.102 150.03 329.385 149.415C300.291 147.565 270.132 151.075 242.17 159.566C217.831 166.955 193.043 178.256 166.393 194.112C154.788 201.017 145.159 205.706 136.092 208.866C130.541 210.801 125.154 212.155 120.081 212.889C115.491 213.553 111.013 213.73 106.729 213.423L106.73 213.425Z" fill="#1D85B4"/>
<path d="M108.89 216.972C108.31 216.93 107.734 216.878 107.161 216.816C104.281 216.504 101.435 215.926 98.7004 215.096C94.5446 213.837 90.4972 211.949 86.6698 209.485C83.0529 207.158 79.6053 204.298 76.4228 200.989C70.4669 194.795 65.4597 187.039 61.9441 178.558C58.1998 169.526 56.2374 159.773 54.3399 150.341C53.2013 144.683 52.0247 138.833 50.4746 133.193C45.3914 114.715 37.2112 101.628 26.1603 94.294C8.61216 82.6543 -13.9004 85.6594 -35.4555 89.7356L-35.4792 89.6078C-25.0985 87.6451 -14.0325 85.8514 -3.44765 86.0212C8.53066 86.2132 18.2388 88.8835 26.2315 94.1854C32.2776 98.198 37.504 103.949 41.7658 111.28C45.3115 117.378 48.2827 124.739 50.5988 133.158C52.1497 138.802 53.3279 144.655 54.4665 150.315C56.3632 159.741 58.324 169.487 62.0636 178.507C69.5886 196.66 83.299 210.291 98.7384 214.97C101.465 215.797 104.304 216.374 107.176 216.685C126.54 218.789 145.748 209.037 165.361 197.978C177.964 190.871 190.882 184.613 203.758 179.376C217.013 173.984 230.562 169.538 244.031 166.16C258.45 162.542 273.286 160.088 288.124 158.867C303.105 157.633 318.219 157.644 333.047 158.901C342.969 159.74 351.65 161.086 359.584 163.017C366.228 164.634 372.421 166.7 377.993 169.157C384.113 171.856 389.711 175.126 394.63 178.877C400.773 183.559 406.201 189.243 411.45 194.74C415.072 198.532 418.817 202.453 422.777 206.029C431.037 213.487 443.758 222.124 457.45 220.919L457.461 221.048C455.906 221.185 454.322 221.196 452.716 221.08C448.305 220.762 443.716 219.495 439.017 217.291C433.549 214.727 428.057 210.97 422.69 206.125C418.727 202.547 414.98 198.624 411.357 194.83C406.111 189.337 400.686 183.657 394.552 178.981C385.065 171.748 373.618 166.568 359.553 163.143C351.625 161.215 342.951 159.869 333.036 159.031C331.903 158.935 330.765 158.846 329.632 158.764C300.968 156.7 272.202 159.228 244.062 166.287C217.488 172.953 191.031 183.654 165.425 198.093C156.493 203.129 146.943 208.358 137.032 212.075C126.633 215.976 117.405 217.584 108.891 216.972H108.89Z" fill="#1D85B4"/>
<path d="M111.149 220.536C108.167 220.321 105.272 219.792 102.493 218.951C94.9933 216.682 88.2137 212.06 82.3416 205.211C77.2308 199.25 72.9381 191.675 69.9265 183.303C66.4291 173.58 64.4794 163.241 62.5938 153.243C61.4298 147.071 60.2263 140.69 58.6706 134.51C53.6595 114.609 45.1556 100.517 33.3957 92.6272C15.0975 80.352 -9 83.5999 -32.1131 87.9791L-32.1282 87.9013C-21.7087 85.9275 -9.62432 83.8315 1.92671 83.9537C14.6979 84.0886 25.0058 86.9041 33.4392 92.5622C39.8509 96.8636 45.3432 103.046 49.7617 110.938C53.4458 117.518 56.4685 125.443 58.7474 134.491C60.3038 140.673 61.5073 147.055 62.6713 153.228C64.5561 163.224 66.5058 173.56 70.0009 183.277C76.6088 201.647 88.4605 214.623 102.516 218.875C121.999 224.769 142.209 213.916 160.041 204.34C161.48 203.568 162.969 202.768 164.416 201.999C177.42 195.092 191.129 189.086 205.16 184.148C219.093 179.244 233.535 175.327 248.087 172.502C262.638 169.678 277.496 167.911 292.247 167.247C307.102 166.579 322.056 167.023 336.692 168.566C349.362 169.902 360.066 171.98 369.416 174.92C374.915 176.648 380.064 178.721 384.723 181.08C389.776 183.639 394.435 186.629 398.572 189.966C404.417 194.682 409.547 200.354 414.508 205.84C418.286 210.017 422.193 214.336 426.392 218.21C433.2 224.49 446.877 234.653 461.987 232.173L462 232.251C455.933 233.248 449.513 232.298 442.921 229.427C437.283 226.973 431.704 223.219 426.338 218.27C422.136 214.394 418.228 210.073 414.449 205.895C409.49 200.411 404.362 194.741 398.522 190.03C379.523 174.704 354.131 170.486 336.683 168.646C333.503 168.31 330.31 168.028 327.118 167.798C271.278 163.777 213.882 175.817 164.452 202.071C163.005 202.839 161.517 203.639 160.077 204.412C150.91 209.334 141.432 214.425 131.759 217.572C126.527 219.275 121.751 220.249 117.158 220.551C115.123 220.684 113.117 220.679 111.148 220.538L111.149 220.536Z" fill="#1D85B4"/>
</g>
</svg>
